<svg width="4608" height="768" viewBox="0 0 2304 384" fill="none" xmlns="http://www.w3.org/2000/svg">
  <path d="M80.031 282L145.567 100.24H197.023L262.559 282H216.991L204.959 247.696H137.375L125.599 282H80.031ZM149.407 212.368H193.183L171.423 148.368L149.407 212.368ZM282.283 282V100.24H349.611C401.579 100.24 427.179 115.6 427.179 150.672C427.179 172.432 413.355 185.488 388.523 188.048C418.987 190.608 434.859 204.944 434.859 230.544C434.859 264.336 409.515 282 359.851 282H282.283ZM326.827 246.928H361.387C378.027 246.928 390.059 240.272 390.059 225.936C390.059 211.856 378.283 204.944 361.387 204.944H326.827V246.928ZM326.827 174.224H354.219C370.859 174.224 382.379 168.08 382.379 155.024C382.379 141.2 371.371 135.312 354.219 135.312H326.827V174.224ZM464.033 282V100.24H508.577V172.176H569.505V100.24H614.049V282H569.505V208.784H508.577V282H464.033ZM642.533 100.24H687.077V282H642.533V100.24ZM759.927 213.392C760.183 237.2 768.887 249.744 784.503 249.744C800.631 249.744 809.079 237.968 809.079 215.952V100.24H853.879V215.952C853.879 257.936 825.207 286.096 783.223 286.096C743.543 286.096 715.639 257.168 715.383 215.696L759.927 213.392ZM884.783 100.24H1015.34V136.592H929.327V172.688H1012.27V209.04H929.327V245.648H1017.39V282H884.783V100.24ZM1045.53 100.24H1176.09V136.592H1090.08V172.688H1173.02V209.04H1090.08V245.648H1178.14V282H1045.53V100.24ZM1348.36 100.24V136.592H1294.6V282H1249.8V136.592H1196.04V100.24H1348.36ZM1468.71 219.536C1471.52 237.2 1484.32 248.72 1505.32 248.72C1520.42 248.72 1530.92 242.576 1530.92 231.056C1530.4 219.28 1520.68 213.136 1495.08 206.992C1452.07 196.752 1427.49 180.368 1427.49 151.184C1427.49 117.392 1456.16 96.144 1499.68 96.144C1540.9 96.144 1569.06 121.232 1573.41 158.864L1529.12 160.912C1527.59 142.992 1515.81 131.984 1498.66 131.984C1482.79 131.984 1471.78 139.92 1472.8 151.952C1473.57 165.008 1488.93 169.616 1507.11 173.968C1550.12 182.928 1575.97 200.592 1575.97 230.032C1575.97 264.848 1545.76 285.072 1504.29 285.072C1458.47 285.072 1426.72 260.496 1424.16 221.584L1468.71 219.536ZM1601.03 100.24H1645.58V282H1601.03V100.24ZM1680.28 100.24H1727.13L1793.18 214.416V100.24H1837.98V282H1789.6L1724.83 172.432V282H1680.28V100.24ZM2034.84 282H2008.47L2006.42 256.912C1997.21 275.088 1976.73 286.096 1951.38 286.096C1900.18 286.096 1864.85 245.648 1864.85 191.376C1864.85 136.848 1899.93 96.144 1954.45 96.144C1996.44 96.144 2025.62 120.464 2034.33 161.168L1987.99 163.216C1983.64 143.76 1971.61 132.496 1953.43 132.496C1924.25 132.496 1910.68 157.072 1910.68 191.376C1910.68 225.424 1924.5 249.744 1953.43 249.744C1973.91 249.744 1985.94 236.944 1989.53 217.488H1952.92V186.512H2034.84V282ZM2063.28 282V100.24H2107.83V172.176H2168.76V100.24H2213.3V282H2168.76V208.784H2107.83V282H2063.28Z" fill="white"/>
</svg>
