<svg width="4600" height="760" viewBox="0 0 2300 380" fill="none" xmlns="http://www.w3.org/2000/svg">
  <path d="M78.031 280L143.567 98.24H195.023L260.559 280H214.991L202.959 245.696H135.375L123.599 280H78.031ZM147.407 210.368H191.183L169.423 146.368L147.407 210.368ZM280.283 280V98.24H347.611C399.579 98.24 425.179 113.6 425.179 148.672C425.179 170.432 411.355 183.488 386.523 186.048C416.987 188.608 432.859 202.944 432.859 228.544C432.859 262.336 407.515 280 357.851 280H280.283ZM324.827 244.928H359.387C376.027 244.928 388.059 238.272 388.059 223.936C388.059 209.856 376.283 202.944 359.387 202.944H324.827V244.928ZM324.827 172.224H352.219C368.859 172.224 380.379 166.08 380.379 153.024C380.379 139.2 369.371 133.312 352.219 133.312H324.827V172.224ZM462.033 280V98.24H506.577V170.176H567.505V98.24H612.049V280H567.505V206.784H506.577V280H462.033ZM640.533 98.24H685.077V280H640.533V98.24ZM757.927 211.392C758.183 235.2 766.887 247.744 782.503 247.744C798.631 247.744 807.079 235.968 807.079 213.952V98.24H851.879V213.952C851.879 255.936 823.207 284.096 781.223 284.096C741.543 284.096 713.639 255.168 713.383 213.696L757.927 211.392ZM882.783 98.24H1013.34V134.592H927.327V170.688H1010.27V207.04H927.327V243.648H1015.39V280H882.783V98.24ZM1043.53 98.24H1174.09V134.592H1088.08V170.688H1171.02V207.04H1088.08V243.648H1176.14V280H1043.53V98.24ZM1346.36 98.24V134.592H1292.6V280H1247.8V134.592H1194.04V98.24H1346.36ZM1466.71 217.536C1469.52 235.2 1482.32 246.72 1503.32 246.72C1518.42 246.72 1528.92 240.576 1528.92 229.056C1528.4 217.28 1518.68 211.136 1493.08 204.992C1450.07 194.752 1425.49 178.368 1425.49 149.184C1425.49 115.392 1454.16 94.144 1497.68 94.144C1538.9 94.144 1567.06 119.232 1571.41 156.864L1527.12 158.912C1525.59 140.992 1513.81 129.984 1496.66 129.984C1480.79 129.984 1469.78 137.92 1470.8 149.952C1471.57 163.008 1486.93 167.616 1505.11 171.968C1548.12 180.928 1573.97 198.592 1573.97 228.032C1573.97 262.848 1543.76 283.072 1502.29 283.072C1456.47 283.072 1424.72 258.496 1422.16 219.584L1466.71 217.536ZM1599.03 98.24H1643.58V280H1599.03V98.24ZM1678.28 98.24H1725.13L1791.18 212.416V98.24H1835.98V280H1787.6L1722.83 170.432V280H1678.28V98.24ZM2032.84 280H2006.47L2004.42 254.912C1995.21 273.088 1974.73 284.096 1949.38 284.096C1898.18 284.096 1862.85 243.648 1862.85 189.376C1862.85 134.848 1897.93 94.144 1952.45 94.144C1994.44 94.144 2023.62 118.464 2032.33 159.168L1985.99 161.216C1981.64 141.76 1969.61 130.496 1951.43 130.496C1922.25 130.496 1908.68 155.072 1908.68 189.376C1908.68 223.424 1922.5 247.744 1951.43 247.744C1971.91 247.744 1983.94 234.944 1987.53 215.488H1950.92V184.512H2032.84V280ZM2061.28 280V98.24H2105.83V170.176H2166.76V98.24H2211.3V280H2166.76V206.784H2105.83V280H2061.28Z" fill="white"/>
</svg>
