<svg width="1400" height="658" viewBox="0 0 1400 658" fill="none" xmlns="http://www.w3.org/2000/svg">
<path d="M164.772 271L220.068 117.64H263.484L318.78 271H280.332L270.18 242.056H213.156L203.22 271H164.772ZM223.308 212.248H260.244L241.884 158.248L223.308 212.248ZM335.422 271V117.64H392.23C436.078 117.64 457.678 130.6 457.678 160.192C457.678 178.552 446.014 189.568 425.062 191.728C450.766 193.888 464.158 205.984 464.158 227.584C464.158 256.096 442.774 271 400.87 271H335.422ZM373.006 241.408H402.166C416.206 241.408 426.358 235.792 426.358 223.696C426.358 211.816 416.422 205.984 402.166 205.984H373.006V241.408ZM373.006 180.064H396.118C410.158 180.064 419.878 174.88 419.878 163.864C419.878 152.2 410.59 147.232 396.118 147.232H373.006V180.064ZM488.774 271V117.64H526.358V178.336H577.766V117.64H615.35V271H577.766V209.224H526.358V271H488.774ZM639.383 117.64H676.967V271H639.383V117.64ZM738.435 213.112C738.651 233.2 745.995 243.784 759.171 243.784C772.779 243.784 779.907 233.848 779.907 215.272V117.64H817.707V215.272C817.707 250.696 793.515 274.456 758.091 274.456C724.611 274.456 701.067 250.048 700.851 215.056L738.435 213.112ZM843.782 117.64H953.942V148.312H881.366V178.768H951.35V209.44H881.366V240.328H955.67V271H843.782V117.64ZM979.415 117.64H1089.57V148.312H1017V178.768H1086.98V209.44H1017V240.328H1091.3V271H979.415V117.64ZM1234.93 117.64V148.312H1189.57V271H1151.77V148.312H1106.41V117.64H1234.93ZM402.542 486.296C404.918 501.2 415.718 510.92 433.43 510.92C446.174 510.92 455.03 505.736 455.03 496.016C454.598 486.08 446.39 480.896 424.79 475.712C388.502 467.072 367.766 453.248 367.766 428.624C367.766 400.112 391.958 382.184 428.678 382.184C463.454 382.184 487.214 403.352 490.886 435.104L453.518 436.832C452.222 421.712 442.286 412.424 427.814 412.424C414.422 412.424 405.134 419.12 405.998 429.272C406.646 440.288 419.606 444.176 434.942 447.848C471.23 455.408 493.046 470.312 493.046 495.152C493.046 524.528 467.558 541.592 432.566 541.592C393.902 541.592 367.118 520.856 364.958 488.024L402.542 486.296ZM514.192 385.64H551.776V539H514.192V385.64ZM581.059 385.64H620.587L676.315 481.976V385.64H714.115V539H673.291L618.643 446.552V539H581.059V385.64ZM880.214 539H857.966L856.238 517.832C848.462 533.168 831.182 542.456 809.798 542.456C766.598 542.456 736.79 508.328 736.79 462.536C736.79 416.528 766.382 382.184 812.39 382.184C847.814 382.184 872.438 402.704 879.782 437.048L840.686 438.776C837.014 422.36 826.862 412.856 811.526 412.856C786.902 412.856 775.454 433.592 775.454 462.536C775.454 491.264 787.118 511.784 811.526 511.784C828.806 511.784 838.958 500.984 841.982 484.568H811.094V458.432H880.214V539ZM904.215 539V385.64H941.799V446.336H993.207V385.64H1030.79V539H993.207V477.224H941.799V539H904.215Z" fill="white"/>
</svg>
