<svg width="1400" height="658" viewBox="0 0 1400 658" fill="none" xmlns="http://www.w3.org/2000/svg">
  <path d="M105.303 264L166.743 93.6H214.983L276.423 264H233.703L222.422 231.84H159.062L148.023 264H105.303ZM170.343 198.72H211.383L190.983 138.72L170.343 198.72ZM294.914 264V93.6H358.034C406.754 93.6 430.754 108 430.754 140.88C430.754 161.28 417.794 173.52 394.514 175.92C423.074 178.32 437.954 191.76 437.954 215.76C437.954 247.44 414.194 264 367.634 264H294.914ZM336.674 231.12H369.074C384.674 231.12 395.954 224.88 395.954 211.44C395.954 198.24 384.914 191.76 369.074 191.76H336.674V231.12ZM336.674 162.96H362.354C377.954 162.96 388.754 157.2 388.754 144.96C388.754 132 378.434 126.48 362.354 126.48H336.674V162.96ZM465.304 264V93.6H507.064V161.04H564.184V93.6H605.944V264H564.184V195.36H507.064V264H465.304ZM632.648 93.6H674.408V264H632.648V93.6ZM742.705 199.68C742.945 222 751.105 233.76 765.745 233.76C780.865 233.76 788.785 222.72 788.785 202.08V93.6H830.785V202.08C830.785 241.44 803.905 267.84 764.545 267.84C727.345 267.84 701.185 240.72 700.945 201.84L742.705 199.68ZM859.758 93.6H982.158V127.68H901.518V161.52H979.278V195.6H901.518V229.92H984.078V264H859.758V93.6ZM1010.46 93.6H1132.86V127.68H1052.22V161.52H1129.98V195.6H1052.22V229.92H1134.78V264H1010.46V93.6ZM1294.36 93.6V127.68H1243.96V264H1201.96V127.68H1151.56V93.6H1294.36ZM369.491 503.44C372.131 520 384.131 530.8 403.811 530.8C417.971 530.8 427.811 525.04 427.811 514.24C427.331 503.2 418.211 497.44 394.211 491.68C353.891 482.08 330.851 466.72 330.851 439.36C330.851 407.68 357.731 387.76 398.531 387.76C437.171 387.76 463.571 411.28 467.651 446.56L426.131 448.48C424.691 431.68 413.651 421.36 397.571 421.36C382.691 421.36 372.371 428.8 373.331 440.08C374.051 452.32 388.451 456.64 405.491 460.72C445.811 469.12 470.051 485.68 470.051 513.28C470.051 545.92 441.731 564.88 402.851 564.88C359.891 564.88 330.131 541.84 327.731 505.36L369.491 503.44ZM493.547 391.6H535.307V562H493.547V391.6ZM567.843 391.6H611.763L673.683 498.64V391.6H715.683V562H670.323L609.603 459.28V562H567.843V391.6ZM900.238 562H875.518L873.598 538.48C864.958 555.52 845.758 565.84 821.998 565.84C773.998 565.84 740.878 527.92 740.878 477.04C740.878 425.92 773.758 387.76 824.878 387.76C864.238 387.76 891.598 410.56 899.758 448.72L856.318 450.64C852.238 432.4 840.958 421.84 823.918 421.84C796.558 421.84 783.838 444.88 783.838 477.04C783.838 508.96 796.798 531.76 823.918 531.76C843.118 531.76 854.398 519.76 857.758 501.52H823.438V472.48H900.238V562ZM926.906 562V391.6H968.666V459.04H1025.79V391.6H1067.55V562H1025.79V493.36H968.666V562H926.906Z" fill="white"/>
</svg>
